<svg width="800" height="600" xmlns="http://www.w3.org/2000/svg" stroke="null">
 <g stroke="null">
  <title stroke="null">Layer 1</title>
  <g stroke="null" id="svg_1">
   <g stroke="null" id="svg_2">
    <title stroke="null" fill="#BBBBBB">Layer 1</title>
    <g stroke="null" id="svg_3">
     <g stroke="null" id="svg_6">
      <g stroke="null" id="svg_7">
       <path stroke="null" fill="#BBBBBB" d="m523.69529,599.70291l-281.6484,0a30.89322,30.89322 0 0 1 -29.94379,-23.37308l-75.91494,-302.70042a30.93484,30.93484 0 0 1 7.3913,-28.58207l216.72229,-232.00835a30.87538,30.87538 0 0 1 22.56041,-9.7956l0.02577,0a30.86151,30.86151 0 0 1 22.56834,9.83525l216.00279,231.99249a30.92097,30.92097 0 0 1 7.36752,28.47504l-75.17165,302.71628a30.86349,30.86349 0 0 1 -29.95964,23.44047zm-257.57365,-61.74085l233.43547,0l65.31856,-263.05221l-182.0472,-195.52756l-182.67355,195.52756l65.96671,263.05221z" data-name="Path 95" id="svg_8"/>
      </g>
     </g>
    </g>
   </g>
  </g>
 </g>

</svg>