<svg id="Слой_1" data-name="Слой 1" xmlns="http://www.w3.org/2000/svg" xmlns:xlink="http://www.w3.org/1999/xlink" viewBox="0 0 53.52 68.97"><defs><style>.cls-1{fill:url(#Безымянный_градиент_10);}.cls-2{fill:url(#Безымянный_градиент_12);}</style><linearGradient id="Безымянный_градиент_10" x1="7283.11" y1="3483.62" x2="7235.41" y2="3531.33" gradientTransform="translate(7639.99 -2619.18) rotate(135)" gradientUnits="userSpaceOnUse"><stop offset="0" stop-opacity="0"/><stop offset="0.46" stop-opacity="0.8"/><stop offset="0.5"/><stop offset="1"/></linearGradient><linearGradient id="Безымянный_градиент_12" x1="26.76" y1="68.97" x2="26.76" y2="12.29" gradientUnits="userSpaceOnUse"><stop offset="0"/><stop offset="0.25" stop-color="#1d1d1b"/><stop offset="0.46" stop-color="#1d1d1b" stop-opacity="0.45"/><stop offset="0.7" stop-color="#1d1d1b" stop-opacity="0.11"/><stop offset="1" stop-color="#1d1d1b" stop-opacity="0"/></linearGradient></defs><path class="cls-1" d="M26.76,67.47h0a12.73,12.73,0,0,1-8.89-21.92l3.18-3.14-8.27-8.18C5.1,26.62,4.85,13.76,12.23,6.14a20.26,20.26,0,0,1,29.06,0c7.39,7.62,7.13,20.48-.55,28.09l-8.26,8.18,3.18,3.14a12.73,12.73,0,0,1-8.9,21.92Zm0-19.41-3.18,3.15a4.91,4.91,0,0,0-.21,6.87,4.78,4.78,0,0,0,3.39,1.39h0a4.76,4.76,0,0,0,3.39-1.39,4.9,4.9,0,0,0-.21-6.87ZM26.76,8a12,12,0,0,0-8.69,3.67,12.21,12.21,0,0,0,.43,16.9l8.26,8.18L35,28.57a12.22,12.22,0,0,0,.43-16.9A12,12,0,0,0,26.76,8Z"/><path class="cls-2" d="M26.76,69a4.1,4.1,0,0,1-2.16-.62L1.88,54.08A4,4,0,0,1,.09,49.89L7.38,15.47a4.06,4.06,0,0,1,4.79-3.1,4,4,0,0,1,3.12,4.74L8.57,48.82,26.76,60.24,45,48.82,38.23,17.11a4,4,0,0,1,3.13-4.74,4,4,0,0,1,4.78,3.1l7.3,34.42a4,4,0,0,1-1.79,4.19L28.93,68.35A4.16,4.16,0,0,1,26.76,69Z"/></svg>