<svg id="Слой_1" data-name="Слой 1" xmlns="http://www.w3.org/2000/svg" xmlns:xlink="http://www.w3.org/1999/xlink" viewBox="0 0 53.86 70.5"><defs><style>.cls-1{opacity:0.5;}.cls-2{fill:url(#Безымянный_градиент_10);}.cls-3{fill:url(#Безымянный_градиент_12);}</style><linearGradient id="Безымянный_градиент_10" x1="7283.04" y1="3493.35" x2="7234.28" y2="3542.12" gradientTransform="translate(7646.99 -2610.75) rotate(135)" gradientUnits="userSpaceOnUse"><stop offset="0" stop-opacity="0"/><stop offset="0.46" stop-opacity="0.8"/><stop offset="0.5"/><stop offset="1"/></linearGradient><linearGradient id="Безымянный_градиент_12" x1="26.93" y1="70.5" x2="26.93" y2="12.56" gradientUnits="userSpaceOnUse"><stop offset="0"/><stop offset="0.25" stop-color="#1d1d1b"/><stop offset="0.46" stop-color="#1d1d1b" stop-opacity="0.45"/><stop offset="0.7" stop-color="#1d1d1b" stop-opacity="0.11"/><stop offset="1" stop-color="#1d1d1b" stop-opacity="0"/></linearGradient></defs><g class="cls-1"><path class="cls-2" d="M26.93,69h0a12.8,12.8,0,0,1-9.17-3.83A13.23,13.23,0,0,1,18,46.56l3.2-3.21L12.86,35c-7.73-7.77-8-20.92-.55-28.71a20.16,20.16,0,0,1,29.24,0C49,14.07,48.73,27.22,41,35l-8.32,8.36,3.2,3.21a13.23,13.23,0,0,1,.22,18.58A12.8,12.8,0,0,1,26.93,69Zm0-19.84-3.2,3.21a5.07,5.07,0,0,0-.21,7,4.76,4.76,0,0,0,3.41,1.42h0a4.76,4.76,0,0,0,3.41-1.42,5.07,5.07,0,0,0-.21-7Zm0-41a12,12,0,0,0-8.75,3.76c-4.45,4.66-4.25,12.57.43,17.28l8.32,8.36,8.32-8.36c4.68-4.71,4.88-12.62.43-17.28A12,12,0,0,0,26.93,8.17Z"/><path class="cls-3" d="M26.93,70.5a4,4,0,0,1-2.18-.64L1.89,55.29A4.1,4.1,0,0,1,.09,51L7.43,15.81a4.07,4.07,0,1,1,8,1.68L8.62,49.9,26.93,61.57,45.24,49.9,38.47,17.49a4.07,4.07,0,1,1,8-1.68L53.77,51A4.1,4.1,0,0,1,52,55.29L29.11,69.86A4,4,0,0,1,26.93,70.5Z"/></g></svg>