<svg id="Слой_1" data-name="Слой 1" xmlns="http://www.w3.org/2000/svg" xmlns:xlink="http://www.w3.org/1999/xlink" viewBox="0 0 278.35 70.5"><defs><style>.cls-1{fill:url(#Безымянный_градиент_635);}.cls-2{fill:url(#Новый_образец_градиентной_за_18);}</style><linearGradient id="Безымянный_градиент_635" x1="7283.04" y1="3493.35" x2="7234.28" y2="3542.12" gradientTransform="translate(7646.99 -2610.75) rotate(135)" gradientUnits="userSpaceOnUse"><stop offset="0" stop-color="#631ee0" stop-opacity="0"/><stop offset="0.09" stop-color="#631ee0" stop-opacity="0.01"/><stop offset="0.15" stop-color="#631ee0" stop-opacity="0.06"/><stop offset="0.22" stop-color="#631ee0" stop-opacity="0.13"/><stop offset="0.28" stop-color="#631ee0" stop-opacity="0.24"/><stop offset="0.33" stop-color="#631ee0" stop-opacity="0.38"/><stop offset="0.39" stop-color="#631ee0" stop-opacity="0.55"/><stop offset="0.44" stop-color="#631ee0" stop-opacity="0.75"/><stop offset="0.49" stop-color="#631ee0" stop-opacity="0.97"/><stop offset="0.5" stop-color="#631ee0"/><stop offset="1" stop-color="#631ee0"/></linearGradient><linearGradient id="Новый_образец_градиентной_за_18" x1="26.93" y1="70.5" x2="26.93" y2="12.56" gradientUnits="userSpaceOnUse"><stop offset="0" stop-color="#631ee0"/><stop offset="0.25" stop-color="#631ee0"/><stop offset="0.26" stop-color="#631ee0" stop-opacity="0.97"/><stop offset="0.34" stop-color="#631ee0" stop-opacity="0.75"/><stop offset="0.42" stop-color="#631ee0" stop-opacity="0.55"/><stop offset="0.5" stop-color="#631ee0" stop-opacity="0.38"/><stop offset="0.58" stop-color="#631ee0" stop-opacity="0.24"/><stop offset="0.67" stop-color="#631ee0" stop-opacity="0.13"/><stop offset="0.77" stop-color="#631ee0" stop-opacity="0.06"/><stop offset="0.87" stop-color="#631ee0" stop-opacity="0.01"/><stop offset="1" stop-color="#631ee0" stop-opacity="0"/></linearGradient></defs><path d="M79.84,49.81a8,8,0,0,1,1.45-.13,2.57,2.57,0,0,1,1.69.45,1.3,1.3,0,0,1,.51,1.09,1.48,1.48,0,0,1-1,1.36v0a1.58,1.58,0,0,1,1.26,1.54,1.67,1.67,0,0,1-.52,1.24,3.07,3.07,0,0,1-2.12.58,8.6,8.6,0,0,1-1.23-.08Zm.8,2.53h.71c.84,0,1.34-.44,1.34-1s-.55-1-1.35-1a4.05,4.05,0,0,0-.7.05Zm0,3a5.51,5.51,0,0,0,.66,0c.82,0,1.58-.3,1.58-1.2s-.72-1.19-1.59-1.19h-.65Z"/><path d="M88.31,49.73v3.65c0,1.39.61,2,1.43,2s1.5-.6,1.5-2V49.73H92v3.6c0,1.89-1,2.67-2.32,2.67s-2.21-.72-2.21-2.64V49.73Z"/><path d="M97,49.73V55.9h-.79V49.73Z"/><path d="M101.13,49.73h.8v5.5h2.62v.67h-3.42Z"/><path d="M108.16,49.81a11.75,11.75,0,0,1,1.69-.13,3.49,3.49,0,0,1,2.48.77,2.86,2.86,0,0,1,.87,2.22,3.29,3.29,0,0,1-.88,2.4,3.83,3.83,0,0,1-2.72.89,11.72,11.72,0,0,1-1.44-.08Zm.79,5.46a4.79,4.79,0,0,0,.81,0,2.36,2.36,0,0,0,2.61-2.61,2.19,2.19,0,0,0-2.49-2.38,4.24,4.24,0,0,0-.93.08Z"/><path d="M122.78,50.41h-1.87v-.68h4.55v.68h-1.88V55.9h-.8Z"/><path d="M129,49.81a8.45,8.45,0,0,1,1.52-.13,2.49,2.49,0,0,1,1.78.51,1.52,1.52,0,0,1,.48,1.17,1.62,1.62,0,0,1-1.16,1.57v0a1.56,1.56,0,0,1,.91,1.25A9.69,9.69,0,0,0,133,55.9h-.82a7.59,7.59,0,0,1-.41-1.47c-.18-.85-.51-1.18-1.23-1.2h-.75V55.9H129Zm.79,2.81h.81c.85,0,1.39-.46,1.39-1.17s-.58-1.14-1.41-1.15a3.16,3.16,0,0,0-.79.07Z"/><path d="M137.42,49.73v3.65c0,1.39.61,2,1.43,2s1.49-.6,1.49-2V49.73h.8v3.6c0,1.89-1,2.67-2.32,2.67s-2.21-.72-2.21-2.64V49.73Z"/><path d="M145.07,54.93a2.77,2.77,0,0,0,1.42.4c.81,0,1.28-.43,1.28-1s-.32-.91-1.15-1.23c-1-.35-1.63-.88-1.63-1.74a1.77,1.77,0,0,1,2-1.68,2.88,2.88,0,0,1,1.36.3l-.22.65a2.44,2.44,0,0,0-1.17-.29c-.83,0-1.15.5-1.15.92,0,.58.37.86,1.22,1.19,1,.41,1.56.91,1.56,1.82s-.7,1.77-2.15,1.77a3.14,3.14,0,0,1-1.56-.39Z"/><path d="M153.68,50.41h-1.87v-.68h4.55v.68h-1.88V55.9h-.8Z"/><path d="M168.27,55.9l-.57-.6a2.53,2.53,0,0,1-1.8.7A1.73,1.73,0,0,1,164,54.27a2,2,0,0,1,1.2-1.8v0a2.11,2.11,0,0,1-.51-1.29,1.5,1.5,0,0,1,1.56-1.52,1.28,1.28,0,0,1,1.36,1.31c0,.65-.38,1.16-1.35,1.65v0c.52.61,1.1,1.29,1.49,1.73a4.69,4.69,0,0,0,.59-1.81h.73a4.72,4.72,0,0,1-.88,2.28l1,1.09Zm-1-1.06c-.37-.4-1.05-1.16-1.73-1.94a1.51,1.51,0,0,0-.8,1.25A1.22,1.22,0,0,0,166,55.4,1.72,1.72,0,0,0,167.31,54.84Zm-1.87-3.76a1.73,1.73,0,0,0,.46,1.1c.62-.35,1-.68,1-1.21a.72.72,0,0,0-.71-.79A.8.8,0,0,0,165.44,51.08Z"/><path d="M181.62,55.7A3.88,3.88,0,0,1,180,56a2.88,2.88,0,0,1-3-3.12,3.07,3.07,0,0,1,3.21-3.24,3.33,3.33,0,0,1,1.46.27l-.19.65a3,3,0,0,0-1.24-.25,2.29,2.29,0,0,0-2.4,2.54,2.24,2.24,0,0,0,2.36,2.48,3.26,3.26,0,0,0,1.29-.25Z"/><path d="M190.35,52.75c0,2.13-1.29,3.25-2.86,3.25a2.82,2.82,0,0,1-2.76-3.13,2.92,2.92,0,0,1,2.86-3.24C189.26,49.63,190.35,50.92,190.35,52.75Zm-4.77.1c0,1.32.71,2.5,2,2.5s2-1.16,2-2.56c0-1.23-.64-2.51-2-2.51S185.58,51.5,185.58,52.85Z"/><path d="M194.18,55.9V49.73h.87l2,3.12a18.91,18.91,0,0,1,1.1,2h0c-.08-.83-.09-1.58-.09-2.54V49.73h.74V55.9H198l-2-3.13a19.53,19.53,0,0,1-1.15-2.06h0c0,.78.06,1.52.06,2.54V55.9Z"/><path d="M202.81,54.93a2.77,2.77,0,0,0,1.42.4c.81,0,1.28-.43,1.28-1s-.33-.91-1.16-1.23c-1-.35-1.62-.88-1.62-1.74a1.77,1.77,0,0,1,2-1.68,2.88,2.88,0,0,1,1.36.3l-.22.65a2.44,2.44,0,0,0-1.17-.29c-.84,0-1.16.5-1.16.92,0,.58.38.86,1.22,1.19,1,.41,1.57.91,1.57,1.82s-.7,1.77-2.15,1.77a3.18,3.18,0,0,1-1.57-.39Z"/><path d="M213.28,53h-2.39v2.22h2.66v.67H210.1V49.73h3.31v.67h-2.52v2h2.39Z"/><path d="M217.28,55.9V49.73h.86l2,3.12a18.91,18.91,0,0,1,1.1,2h0c-.07-.83-.09-1.58-.09-2.54V49.73h.75V55.9h-.81l-2-3.13A21.35,21.35,0,0,1,218,50.71h0c0,.78.06,1.52.06,2.54V55.9Z"/><path d="M225.9,54.93a2.77,2.77,0,0,0,1.42.4c.81,0,1.28-.43,1.28-1s-.32-.91-1.15-1.23c-1-.35-1.63-.88-1.63-1.74a1.77,1.77,0,0,1,2-1.68,2.88,2.88,0,0,1,1.36.3l-.22.65a2.44,2.44,0,0,0-1.17-.29c-.83,0-1.15.5-1.15.92,0,.58.37.86,1.22,1.19,1,.41,1.56.91,1.56,1.82s-.7,1.77-2.15,1.77a3.14,3.14,0,0,1-1.56-.39Z"/><path d="M233.9,49.73v3.65c0,1.39.62,2,1.44,2s1.49-.6,1.49-2V49.73h.8v3.6c0,1.89-1,2.67-2.32,2.67s-2.21-.72-2.21-2.64V49.73Z"/><path d="M241.56,54.93a2.77,2.77,0,0,0,1.42.4c.81,0,1.28-.43,1.28-1s-.32-.91-1.15-1.23c-1-.35-1.63-.88-1.63-1.74a1.77,1.77,0,0,1,2-1.68,2.85,2.85,0,0,1,1.36.3l-.22.65a2.44,2.44,0,0,0-1.17-.29c-.83,0-1.15.5-1.15.92,0,.58.37.86,1.22,1.19,1,.41,1.56.91,1.56,1.82s-.7,1.77-2.15,1.77a3.14,3.14,0,0,1-1.56-.39Z"/><path d="M80,34.88V13H94.49v2.94h-8v6.37h7.6v3h-7.6v6.68h8.45v2.94Z"/><path d="M110.86,12.55a14.25,14.25,0,0,1,4.62.75,11.5,11.5,0,0,1,3.81,2.1,10.64,10.64,0,0,1,2.92,3.81,11.52,11.52,0,0,1,1,4.8,11.4,11.4,0,0,1-1,4.78,11,11,0,0,1-2.91,3.79,11.7,11.7,0,0,1-3.81,2.1,14.7,14.7,0,0,1-9.24,0,11.82,11.82,0,0,1-3.8-2.09,10.89,10.89,0,0,1-2.92-3.84,11.59,11.59,0,0,1-1-4.79,11.36,11.36,0,0,1,1-4.77,10.81,10.81,0,0,1,2.9-3.81,11.29,11.29,0,0,1,3.79-2.08A14.53,14.53,0,0,1,110.86,12.55ZM105.53,24A12.22,12.22,0,0,0,107,30.4a4.46,4.46,0,0,0,7.82,0A12.22,12.22,0,0,0,116.2,24a12.29,12.29,0,0,0-1.41-6.41,4.49,4.49,0,0,0-7.84,0A12.18,12.18,0,0,0,105.53,24Z"/><path d="M129.86,29.32a6.27,6.27,0,0,0,1.78,2.44,3.66,3.66,0,0,0,2.35.85,3.21,3.21,0,0,0,2.17-.74A2.37,2.37,0,0,0,137,30a2.41,2.41,0,0,0-.65-1.63,7.18,7.18,0,0,0-2.09-1.48l-.92-.47a29.75,29.75,0,0,1-3.8-2.11,7.05,7.05,0,0,1-1.87-2.16,5.5,5.5,0,0,1-.55-2.51,6.61,6.61,0,0,1,2.25-5.17,8.5,8.5,0,0,1,5.86-2,8.75,8.75,0,0,1,4.44,1.09,7.51,7.51,0,0,1,3,3.13L140,18.45a5.67,5.67,0,0,0-1.77-2.36,4.17,4.17,0,0,0-2.54-.79,3,3,0,0,0-2,.72,2.37,2.37,0,0,0-.8,1.81,2.24,2.24,0,0,0,.66,1.6,9.77,9.77,0,0,0,2.58,1.6l.44.22a30.62,30.62,0,0,1,4.28,2.24,6.57,6.57,0,0,1,1.85,2.1,5.7,5.7,0,0,1,.56,2.58,6.59,6.59,0,0,1-2.38,5.26,9.27,9.27,0,0,1-6.21,2,10,10,0,0,1-4.81-1.13,7.66,7.66,0,0,1-3.19-3.19Z"/><path d="M161.14,34.88V13h10.12a11.52,11.52,0,0,1,6.86,1.79,5.71,5.71,0,0,1,2.49,4.9,5.26,5.26,0,0,1-1.35,3.73,7.69,7.69,0,0,1-4,2l5.61,9.41h-7.27l-5.66-11.13h1.46a5.51,5.51,0,0,0,3.58-1,3.64,3.64,0,0,0,1.17-3,3.8,3.8,0,0,0-1.21-3.1,5.87,5.87,0,0,0-3.78-1h-1.65V34.88Z"/><path d="M188.18,34.88a3.45,3.45,0,0,1-2.52-.74,3.63,3.63,0,0,1-.74-2.58V23.69a3.6,3.6,0,0,1,.74-2.58,3.45,3.45,0,0,1,2.52-.75h7.15v2.18h-3.8a1.79,1.79,0,0,0-1.27.33,1.86,1.86,0,0,0-.32,1.29v2.38h4.82v2.17h-4.82v2.43a1.83,1.83,0,0,0,.31,1.26,1.93,1.93,0,0,0,1.28.31h4.05v2.17Z"/><path d="M199.57,34.88V32.71h4.09a3.94,3.94,0,0,0,2-.37,1.39,1.39,0,0,0,.56-1.24q0-1.11-2.31-1.77L202.81,29a7.56,7.56,0,0,1-3.11-1.58,3.37,3.37,0,0,1-.85-2.41,4.06,4.06,0,0,1,1.59-3.47,7.56,7.56,0,0,1,4.61-1.2h4v2.18h-3.47a2.67,2.67,0,0,0-1.34.29.88.88,0,0,0-.48.79c0,.6.67,1.1,2,1.49l.68.21A7.66,7.66,0,0,1,209.79,27a3.93,3.93,0,0,1,.86,2.72,4.7,4.7,0,0,1-1.58,3.76,6.51,6.51,0,0,1-4.38,1.36Z"/><path d="M219.88,41h-5V20.36h5.83q4.62,0,7,2a7.06,7.06,0,0,1,2.4,5.77,6.09,6.09,0,0,1-2.15,5.13c-1.43,1.12-3.61,1.68-6.52,1.68h-.94l-.59,0Zm0-18.64V32.87a4.8,4.8,0,0,0,3.65-1.24,5.79,5.79,0,0,0,1.11-4,5.84,5.84,0,0,0-1.12-4A4.81,4.81,0,0,0,219.88,22.38Z"/><path d="M237.57,34.88a3.45,3.45,0,0,1-2.52-.74,3.63,3.63,0,0,1-.74-2.58V23.69a3.6,3.6,0,0,1,.74-2.58,3.45,3.45,0,0,1,2.52-.75h7.15v2.18h-3.8a1.79,1.79,0,0,0-1.27.33,1.86,1.86,0,0,0-.32,1.29v2.38h4.82v2.17h-4.82v2.43a1.83,1.83,0,0,0,.31,1.26,1.93,1.93,0,0,0,1.28.31H245v2.17Z"/><path d="M262.29,31.27a7.36,7.36,0,0,1-2.62,3.09,6.91,6.91,0,0,1-3.83,1.06,7.41,7.41,0,0,1-5.5-2.14,7.6,7.6,0,0,1-2.12-5.57A7.5,7.5,0,0,1,256,19.9a7.39,7.39,0,0,1,3.88,1,5.34,5.34,0,0,1,2.26,2.77L260,24.8a4.13,4.13,0,0,0-1.1-2,2.62,2.62,0,0,0-1.82-.68,2.72,2.72,0,0,0-2.47,1.42,8,8,0,0,0-.86,4.12,9.07,9.07,0,0,0,.73,4.21,2.47,2.47,0,0,0,2.33,1.32,3.34,3.34,0,0,0,2.15-.8,4.52,4.52,0,0,0,1.4-2.16Z"/><path d="M269.21,34.88v-12h-4.13V20.36h13.27v2.49h-4.13v12Z"/><path class="cls-1" d="M26.93,69h0a12.77,12.77,0,0,1-9.17-3.84A13.22,13.22,0,0,1,18,46.56l3.2-3.21L12.86,35c-7.73-7.77-8-20.92-.55-28.71a20.16,20.16,0,0,1,29.24,0C49,14.07,48.73,27.22,41,35l-8.32,8.36,3.2,3.21a13.22,13.22,0,0,1,.22,18.57A12.77,12.77,0,0,1,26.93,69Zm0-19.84-3.2,3.21a5.07,5.07,0,0,0-.21,7,4.76,4.76,0,0,0,3.41,1.42h0a4.76,4.76,0,0,0,3.41-1.42,5.07,5.07,0,0,0-.21-7Zm0-41a12,12,0,0,0-8.75,3.76c-4.45,4.66-4.25,12.57.43,17.28h0l8.32,8.36,8.32-8.36c4.68-4.71,4.88-12.62.43-17.28A12,12,0,0,0,26.93,8.17Z"/><path class="cls-2" d="M26.93,70.5a4,4,0,0,1-2.18-.64L1.89,55.29A4.11,4.11,0,0,1,.09,51L7.43,15.81a4.07,4.07,0,1,1,8,1.68L8.62,49.9,26.93,61.57,45.24,49.9,38.47,17.49a4.07,4.07,0,1,1,8-1.68L53.77,51a4.11,4.11,0,0,1-1.8,4.3L29.11,69.86A4,4,0,0,1,26.93,70.5Z"/></svg>