<svg id="Слой_1" data-name="Слой 1" xmlns="http://www.w3.org/2000/svg" xmlns:xlink="http://www.w3.org/1999/xlink" viewBox="0 0 53.86 70.5"><defs><style>.cls-1{fill:url(#Безымянный_градиент_635);}.cls-2{fill:url(#Новый_образец_градиентной_за_18);}</style><linearGradient id="Безымянный_градиент_635" x1="7283.04" y1="3493.35" x2="7234.28" y2="3542.12" gradientTransform="translate(7646.99 -2610.75) rotate(135)" gradientUnits="userSpaceOnUse"><stop offset="0" stop-color="#631ee0" stop-opacity="0"/><stop offset="0.09" stop-color="#631ee0" stop-opacity="0.01"/><stop offset="0.15" stop-color="#631ee0" stop-opacity="0.06"/><stop offset="0.22" stop-color="#631ee0" stop-opacity="0.13"/><stop offset="0.28" stop-color="#631ee0" stop-opacity="0.24"/><stop offset="0.33" stop-color="#631ee0" stop-opacity="0.38"/><stop offset="0.39" stop-color="#631ee0" stop-opacity="0.55"/><stop offset="0.44" stop-color="#631ee0" stop-opacity="0.75"/><stop offset="0.49" stop-color="#631ee0" stop-opacity="0.97"/><stop offset="0.5" stop-color="#631ee0"/><stop offset="1" stop-color="#631ee0"/></linearGradient><linearGradient id="Новый_образец_градиентной_за_18" x1="26.93" y1="70.5" x2="26.93" y2="12.56" gradientUnits="userSpaceOnUse"><stop offset="0" stop-color="#631ee0"/><stop offset="0.25" stop-color="#631ee0"/><stop offset="0.26" stop-color="#631ee0" stop-opacity="0.97"/><stop offset="0.34" stop-color="#631ee0" stop-opacity="0.75"/><stop offset="0.42" stop-color="#631ee0" stop-opacity="0.55"/><stop offset="0.5" stop-color="#631ee0" stop-opacity="0.38"/><stop offset="0.58" stop-color="#631ee0" stop-opacity="0.24"/><stop offset="0.67" stop-color="#631ee0" stop-opacity="0.13"/><stop offset="0.77" stop-color="#631ee0" stop-opacity="0.06"/><stop offset="0.87" stop-color="#631ee0" stop-opacity="0.01"/><stop offset="1" stop-color="#631ee0" stop-opacity="0"/></linearGradient></defs><path class="cls-1" d="M26.93,69h0a12.77,12.77,0,0,1-9.17-3.84A13.22,13.22,0,0,1,18,46.56l3.2-3.21L12.86,35c-7.73-7.77-8-20.92-.55-28.71a20.16,20.16,0,0,1,29.24,0C49,14.07,48.73,27.22,41,35l-8.32,8.36,3.2,3.21a13.22,13.22,0,0,1,.22,18.57A12.77,12.77,0,0,1,26.93,69Zm0-19.84-3.2,3.21a5.07,5.07,0,0,0-.21,7,4.76,4.76,0,0,0,3.41,1.42h0a4.76,4.76,0,0,0,3.41-1.42,5.07,5.07,0,0,0-.21-7Zm0-41a12,12,0,0,0-8.75,3.76c-4.45,4.66-4.25,12.57.43,17.28h0l8.32,8.36,8.32-8.36c4.68-4.71,4.88-12.62.43-17.28A12,12,0,0,0,26.93,8.17Z"/><path class="cls-2" d="M26.93,70.5a4,4,0,0,1-2.18-.64L1.89,55.29A4.11,4.11,0,0,1,.09,51L7.43,15.81a4.07,4.07,0,1,1,8,1.68L8.62,49.9,26.93,61.57,45.24,49.9,38.47,17.49a4.07,4.07,0,1,1,8-1.68L53.77,51a4.11,4.11,0,0,1-1.8,4.3L29.11,69.86A4,4,0,0,1,26.93,70.5Z"/></svg>