<svg id="Слой_1" data-name="Слой 1" xmlns="http://www.w3.org/2000/svg" xmlns:xlink="http://www.w3.org/1999/xlink" viewBox="0 0 278.35 70.5"><defs><style>.cls-1{fill:url(#Безымянный_градиент_10);}.cls-2{fill:url(#Безымянный_градиент_12);}</style><linearGradient id="Безымянный_градиент_10" x1="7283.04" y1="3493.35" x2="7234.28" y2="3542.12" gradientTransform="translate(7646.99 -2610.75) rotate(135)" gradientUnits="userSpaceOnUse"><stop offset="0" stop-opacity="0"/><stop offset="0.46" stop-opacity="0.8"/><stop offset="0.5"/><stop offset="1"/></linearGradient><linearGradient id="Безымянный_градиент_12" x1="26.93" y1="70.5" x2="26.93" y2="12.56" gradientUnits="userSpaceOnUse"><stop offset="0"/><stop offset="0.25" stop-color="#1d1d1b"/><stop offset="0.46" stop-color="#1d1d1b" stop-opacity="0.45"/><stop offset="0.7" stop-color="#1d1d1b" stop-opacity="0.11"/><stop offset="1" stop-color="#1d1d1b" stop-opacity="0"/></linearGradient></defs><path class="cls-1" d="M26.93,69h0a12.8,12.8,0,0,1-9.17-3.83A13.23,13.23,0,0,1,18,46.56l3.2-3.21L12.86,35c-7.73-7.77-8-20.92-.55-28.71a20.16,20.16,0,0,1,29.24,0C49,14.07,48.73,27.22,41,35l-8.32,8.36,3.2,3.21a13.23,13.23,0,0,1,.22,18.58A12.8,12.8,0,0,1,26.93,69Zm0-19.84-3.2,3.21a5.07,5.07,0,0,0-.21,7,4.76,4.76,0,0,0,3.41,1.42h0a4.76,4.76,0,0,0,3.41-1.42,5.07,5.07,0,0,0-.21-7Zm0-41a12,12,0,0,0-8.75,3.76c-4.45,4.66-4.25,12.57.43,17.28l8.32,8.36,8.32-8.36c4.68-4.71,4.88-12.62.43-17.28A12,12,0,0,0,26.93,8.17Z"/><path class="cls-2" d="M26.93,70.5a4,4,0,0,1-2.18-.64L1.89,55.29A4.1,4.1,0,0,1,.09,51L7.43,15.81a4.07,4.07,0,1,1,8,1.68L8.62,49.9,26.93,61.57,45.24,49.9,38.47,17.49a4.07,4.07,0,1,1,8-1.68L53.77,51A4.1,4.1,0,0,1,52,55.29L29.11,69.86A4,4,0,0,1,26.93,70.5Z"/><path d="M80,50.08a8.59,8.59,0,0,1,1.69-.15,2.92,2.92,0,0,1,2,.52,1.49,1.49,0,0,1,.59,1.26A1.69,1.69,0,0,1,83,53.28v0a1.85,1.85,0,0,1,1.47,1.8,1.91,1.91,0,0,1-.6,1.43,3.56,3.56,0,0,1-2.47.67A11.51,11.51,0,0,1,80,57.12ZM80.87,53h.84c1,0,1.54-.51,1.54-1.2,0-.84-.63-1.17-1.56-1.17a4.28,4.28,0,0,0-.82.06Zm0,3.43a5.3,5.3,0,0,0,.78,0c.95,0,1.83-.35,1.83-1.39s-.84-1.38-1.84-1.38h-.77Z"/><path d="M89.73,50v4.24c0,1.6.71,2.28,1.66,2.28s1.73-.7,1.73-2.28V50h.93v4.17c0,2.2-1.15,3.1-2.69,3.1s-2.56-.83-2.56-3V50Z"/><path d="M99.73,50v7.16h-.92V50Z"/><path d="M104.49,50h.92v6.38h3v.78h-4Z"/><path d="M112.57,50.08a12.61,12.61,0,0,1,2-.15,4.06,4.06,0,0,1,2.89.89,3.31,3.31,0,0,1,1,2.57,3.81,3.81,0,0,1-1,2.78,4.39,4.39,0,0,1-3.15,1,15.89,15.89,0,0,1-1.68-.08Zm.92,6.33a6.33,6.33,0,0,0,.94.05,2.75,2.75,0,0,0,3-3c0-1.69-.94-2.76-2.89-2.76a4.81,4.81,0,0,0-1.08.1Z"/><path d="M129.55,50.77h-2.16V50h5.27v.79h-2.18v6.37h-.93Z"/><path d="M136.67,50.08a9.1,9.1,0,0,1,1.76-.15,3,3,0,0,1,2.07.58,1.83,1.83,0,0,1,.56,1.36,1.89,1.89,0,0,1-1.35,1.83v0a1.78,1.78,0,0,1,1,1.44,11.17,11.17,0,0,0,.55,2h-.95a8.83,8.83,0,0,1-.48-1.71c-.21-1-.59-1.36-1.43-1.39h-.86v3.1h-.92Zm.92,3.26h.94c1,0,1.61-.55,1.61-1.36s-.67-1.33-1.64-1.34a4,4,0,0,0-.91.08Z"/><path d="M146.42,50v4.24c0,1.6.71,2.28,1.66,2.28s1.74-.7,1.74-2.28V50h.93v4.17c0,2.2-1.16,3.1-2.7,3.1s-2.56-.83-2.56-3V50Z"/><path d="M155.24,56a3.21,3.21,0,0,0,1.65.47c.94,0,1.49-.5,1.49-1.22s-.38-1-1.34-1.42c-1.16-.42-1.88-1-1.88-2a2.05,2.05,0,0,1,2.3-2,3.26,3.26,0,0,1,1.58.35l-.26.76a2.76,2.76,0,0,0-1.35-.34c-1,0-1.34.58-1.34,1.07,0,.67.43,1,1.42,1.38,1.2.47,1.81,1.05,1.81,2.1s-.81,2.06-2.49,2.06a3.72,3.72,0,0,1-1.82-.45Z"/><path d="M165.18,50.77H163V50h5.28v.79h-2.18v6.37h-.93Z"/><path d="M182.13,57.14l-.67-.7a2.91,2.91,0,0,1-2.08.81,2,2,0,0,1-2.19-2,2.34,2.34,0,0,1,1.39-2.09v0a2.43,2.43,0,0,1-.59-1.49,1.74,1.74,0,0,1,1.81-1.77,1.49,1.49,0,0,1,1.58,1.52c0,.76-.44,1.35-1.57,1.91v0c.6.7,1.28,1.48,1.74,2a5.28,5.28,0,0,0,.68-2.09h.85a5.38,5.38,0,0,1-1,2.64l1.18,1.27ZM181,55.91c-.43-.47-1.22-1.34-2-2.26a1.78,1.78,0,0,0-.92,1.46,1.4,1.4,0,0,0,1.46,1.44A2,2,0,0,0,181,55.91Zm-2.17-4.37a2,2,0,0,0,.54,1.29c.72-.42,1.18-.8,1.18-1.41a.84.84,0,0,0-.82-.92A.93.93,0,0,0,178.84,51.54Z"/><path d="M192.64,50.08a9.28,9.28,0,0,1,1.77-.15,2.92,2.92,0,0,1,2.06.58,1.79,1.79,0,0,1,.56,1.36,1.88,1.88,0,0,1-1.34,1.83v0a1.78,1.78,0,0,1,1.05,1.44,11.17,11.17,0,0,0,.55,2h-.95a8.83,8.83,0,0,1-.48-1.71c-.21-1-.59-1.36-1.43-1.39h-.87v3.1h-.92Zm.92,3.26h.95c1,0,1.6-.55,1.6-1.36s-.66-1.33-1.64-1.34a4,4,0,0,0-.91.08Z"/><path d="M205.23,53.78h-2.77v2.58h3.09v.78h-4V50h3.85v.78h-2.93V53h2.77Z"/><path d="M209.81,56a3.18,3.18,0,0,0,1.65.47c.94,0,1.49-.5,1.49-1.22s-.38-1-1.34-1.42c-1.17-.42-1.88-1-1.88-2a2,2,0,0,1,2.3-2,3.26,3.26,0,0,1,1.58.35l-.26.76a2.79,2.79,0,0,0-1.35-.34c-1,0-1.34.58-1.34,1.07,0,.67.43,1,1.41,1.38,1.21.47,1.82,1.05,1.82,2.1s-.81,2.06-2.49,2.06a3.72,3.72,0,0,1-1.82-.45Z"/><path d="M218.21,50.06a11.28,11.28,0,0,1,1.77-.13,3,3,0,0,1,2,.59,1.93,1.93,0,0,1,.62,1.5,2.11,2.11,0,0,1-.55,1.53,3,3,0,0,1-2.18.78,3.36,3.36,0,0,1-.74-.06v2.87h-.92Zm.92,3.46a3.28,3.28,0,0,0,.76.07c1.11,0,1.79-.54,1.79-1.53s-.67-1.4-1.68-1.4a4.13,4.13,0,0,0-.87.07Z"/><path d="M230.52,53.78h-2.77v2.58h3.09v.78h-4V50h3.85v.78h-2.93V53h2.77Z"/><path d="M240.08,56.9a4.53,4.53,0,0,1-1.88.34,3.33,3.33,0,0,1-3.52-3.62,3.55,3.55,0,0,1,3.72-3.76,3.73,3.73,0,0,1,1.69.32l-.22.76a3.35,3.35,0,0,0-1.44-.3,2.65,2.65,0,0,0-2.78,3,2.6,2.6,0,0,0,2.74,2.88,3.67,3.67,0,0,0,1.5-.3Z"/><path d="M246,50.77h-2.17V50h5.28v.79H247v6.37H246Z"/><path d="M80,34.89V13H94.49v2.94h-8v6.37h7.6v3h-7.6v6.68h8.45v2.95Z"/><path d="M110.86,12.55a14.25,14.25,0,0,1,4.62.75,11.5,11.5,0,0,1,3.81,2.1,10.64,10.64,0,0,1,2.92,3.81,11.52,11.52,0,0,1,1,4.8,11.4,11.4,0,0,1-1,4.78,11,11,0,0,1-2.91,3.79,11.7,11.7,0,0,1-3.81,2.1,14.51,14.51,0,0,1-9.24,0,11.82,11.82,0,0,1-3.8-2.09,10.94,10.94,0,0,1-2.92-3.83,11.64,11.64,0,0,1-1-4.8,11.28,11.28,0,0,1,1-4.76,10.76,10.76,0,0,1,2.9-3.82,11.46,11.46,0,0,1,3.79-2.08A14.53,14.53,0,0,1,110.86,12.55ZM105.53,24A12.22,12.22,0,0,0,107,30.4a4.46,4.46,0,0,0,7.82,0A12.22,12.22,0,0,0,116.2,24a12.29,12.29,0,0,0-1.41-6.41,4.49,4.49,0,0,0-7.84,0A12.18,12.18,0,0,0,105.53,24Z"/><path d="M129.86,29.32a6.27,6.27,0,0,0,1.78,2.44,3.66,3.66,0,0,0,2.35.85,3.21,3.21,0,0,0,2.17-.74A2.35,2.35,0,0,0,137,30a2.41,2.41,0,0,0-.65-1.63,7.18,7.18,0,0,0-2.09-1.48l-.92-.47a28.47,28.47,0,0,1-3.8-2.11,6.94,6.94,0,0,1-1.87-2.16,5.5,5.5,0,0,1-.55-2.51,6.61,6.61,0,0,1,2.25-5.17,8.5,8.5,0,0,1,5.86-2,8.75,8.75,0,0,1,4.44,1.09,7.51,7.51,0,0,1,3,3.13L140,18.45a5.67,5.67,0,0,0-1.77-2.36,4.17,4.17,0,0,0-2.54-.78,3,3,0,0,0-2,.72,2.33,2.33,0,0,0-.8,1.8,2.24,2.24,0,0,0,.66,1.6A10,10,0,0,0,136.12,21l.44.21a30.62,30.62,0,0,1,4.28,2.24,6.57,6.57,0,0,1,1.85,2.1,5.7,5.7,0,0,1,.56,2.58,6.59,6.59,0,0,1-2.38,5.26,9.27,9.27,0,0,1-6.21,2,10,10,0,0,1-4.81-1.13,7.61,7.61,0,0,1-3.19-3.19Z"/><path d="M161.14,34.89V13h10.12a11.52,11.52,0,0,1,6.86,1.79,5.71,5.71,0,0,1,2.49,4.9,5.26,5.26,0,0,1-1.35,3.73,7.69,7.69,0,0,1-4,2l5.61,9.42h-7.27l-5.66-11.14h1.46a5.51,5.51,0,0,0,3.58-1,3.64,3.64,0,0,0,1.17-3,3.8,3.8,0,0,0-1.21-3.1,5.87,5.87,0,0,0-3.78-1h-1.65V34.89Z"/><path d="M188.18,34.89a3.45,3.45,0,0,1-2.52-.75,3.63,3.63,0,0,1-.74-2.58V23.69a3.63,3.63,0,0,1,.74-2.58,3.45,3.45,0,0,1,2.52-.75h7.15v2.18h-3.8a1.79,1.79,0,0,0-1.27.33,1.86,1.86,0,0,0-.32,1.29v2.38h4.82v2.17h-4.82v2.43a1.83,1.83,0,0,0,.31,1.26,1.93,1.93,0,0,0,1.28.31h4.05v2.18Z"/><path d="M199.57,34.89V32.71h4.09a3.94,3.94,0,0,0,2-.37,1.39,1.39,0,0,0,.56-1.24c0-.74-.77-1.33-2.31-1.76L202.81,29a7.44,7.44,0,0,1-3.11-1.58,3.37,3.37,0,0,1-.85-2.41,4.07,4.07,0,0,1,1.59-3.47,7.56,7.56,0,0,1,4.61-1.2h4v2.18h-3.47a2.67,2.67,0,0,0-1.34.29.88.88,0,0,0-.48.79c0,.6.67,1.1,2,1.49l.68.21A7.66,7.66,0,0,1,209.79,27a3.93,3.93,0,0,1,.86,2.72,4.7,4.7,0,0,1-1.58,3.76,6.51,6.51,0,0,1-4.38,1.37Z"/><path d="M219.88,41h-5V20.36h5.83q4.62,0,7,2a7.07,7.07,0,0,1,2.4,5.77,6.09,6.09,0,0,1-2.15,5.13c-1.43,1.12-3.61,1.68-6.52,1.68h-.94l-.59,0Zm0-18.64V32.87a4.84,4.84,0,0,0,3.65-1.23,5.84,5.84,0,0,0,1.11-4,5.84,5.84,0,0,0-1.12-4A4.81,4.81,0,0,0,219.88,22.38Z"/><path d="M237.57,34.89a3.45,3.45,0,0,1-2.52-.75,3.63,3.63,0,0,1-.74-2.58V23.69a3.63,3.63,0,0,1,.74-2.58,3.45,3.45,0,0,1,2.52-.75h7.15v2.18h-3.8a1.79,1.79,0,0,0-1.27.33,1.86,1.86,0,0,0-.32,1.29v2.38h4.82v2.17h-4.82v2.43a1.83,1.83,0,0,0,.31,1.26,1.93,1.93,0,0,0,1.28.31H245v2.18Z"/><path d="M262.29,31.27a7.36,7.36,0,0,1-2.62,3.09,6.92,6.92,0,0,1-3.83,1.07,7.41,7.41,0,0,1-5.5-2.15,7.59,7.59,0,0,1-2.12-5.57,7.48,7.48,0,0,1,7.75-7.8,7.4,7.4,0,0,1,3.89.94,5.34,5.34,0,0,1,2.26,2.77L260,24.8a4.26,4.26,0,0,0-1.1-2,2.62,2.62,0,0,0-1.82-.68,2.72,2.72,0,0,0-2.47,1.42,8.06,8.06,0,0,0-.86,4.12,9.07,9.07,0,0,0,.73,4.21,2.46,2.46,0,0,0,2.32,1.32,3.34,3.34,0,0,0,2.16-.8,4.6,4.6,0,0,0,1.4-2.16Z"/><path d="M269.21,34.89v-12h-4.13V20.36h13.27v2.49h-4.13v12Z"/></svg>